<svg xmlns="http://www.w3.org/2000/svg" viewBox="0 0 799.56 786.75"><defs><linearGradient id="a" x1="-748" x2="-722" y1="501.11" y2="501.11" gradientUnits="userSpaceOnUse"><stop offset="0"/><stop offset="1" stop-opacity="0"/></linearGradient><linearGradient id="b" x1="-748" x2="-722" y1="501.11" y2="501.11" gradientUnits="userSpaceOnUse"><stop offset="0" stop-color="#a4d019"/><stop offset="1" stop-color="#a4d019" stop-opacity="0"/></linearGradient><filter id="c" color-interpolation-filters="sRGB"><feGaussianBlur stdDeviation="1.157"/></filter></defs><path fill="#f7d180" stroke="#f9bc25" stroke-width="6.89303" d="M472.45 377.062c-12.39 3.999-22.596 13.209-29.279 24.233-4.443 7.845-7.97 16.177-11.528 24.45-12.33 29.105-20.95 59.835-24.843 91.225-3.629 28.984-3.497 58.418.178 87.391 3.854 30.497 11.714 60.625 24.638 88.57 8.515 17.842 18.828 35.07 32.481 49.481 4.632 4.538 9.169 9.614 15.268 12.159 6.465 2.426 13.664-.581 18.573-4.92 6.156-5.451 9.523-13.53 9.86-21.674.495-8.983-1.589-17.836-3.094-26.636-2.055-10.265-4.25-20.503-6.024-30.821-5.08-26.182-9.729-52.711-9.056-79.482.693-22.282 3.75-44.582 10.217-65.947 4.323-12.312 14.037-21.642 19.57-33.325 1.99-3.65 2.322-8.09 4.975-11.372 3.312-2.604 6.631-5.39 8.565-9.218 6.796-10.28 10.528-22.585 10.188-34.933-.337-15.4-6.751-30.814-18.35-41.12-10.866-9.828-25.134-15.175-39.463-17.351-4.269-.526-8.576-.86-12.879-.708z"/><g stroke="#ae8211" stroke-width="2.345"><path fill="#f0f0db" stroke-width="2.6248523" d="M504.379 675.496c9.7-.08 19.494.453 28.931 2.836 9.338 2.375 18.397 6.584 25.44 13.263 4.554 4.22 8.006 9.715 9.376 15.802.629 3.117 1.523 6.178 2.083 9.306.792 4.368.007 8.81-1.094 13.05-.755 2.908-.824 6.016-2.233 8.731-2.735 6.085-8.535 10.42-14.83 12.312-5.229 1.48-10.971 1.31-15.992-.843-1.536-.58-3.548-1.154-4.887.15-1.754 1.423-3.043 3.357-4.976 4.58-6.857 5.22-16.498 6.721-24.507 3.393-3.391-1.208-6.313-3.386-9.428-5.112-2.07-.696-3.883.95-5.42 2.099-5.396 4.283-12.958 5.21-19.465 3.274-8.141-2.26-14.892-8.778-17.58-16.769-1.472-4.424-2.405-9.002-3.579-13.507-1.273-5.592-1.627-11.617.422-17.073 2.59-7.897 8.244-14.458 14.832-19.367 9.016-6.916 19.744-11.329 30.783-13.805 4.019-.878 8.058-1.678 12.122-2.32z"/><path fill="none" stroke-width="2.6248523" d="M531.715 749.486c12.293-16.47-2.625-31.131-3.313-31.807M490.938 752.136c5.9-19.688-13.141-28.344-14.019-28.743"/></g><path fill="#f7d180" stroke="#f9bc25" stroke-width="7.389888000000001" d="M187.175 358.885c-16.453 2.329-33.128 6.44-47.096 15.812-14.61 9.73-25.317 24.423-32.383 40.324-5.28 10.955-10.649 22.138-12.642 34.238-1.23 6.903-.548 13.954.985 20.749 1.487 7.746 1.9 15.585 4.669 22.99 2.229 6.042 2.826 12.497 2.966 18.893.628 8.803 1.803 17.563 2.897 26.318 3.082 23.222 7.85 46.314 15.869 68.37 7.51 21.29 17.69 41.488 27.731 61.661 9.92 19.416 19.616 39.049 31.832 57.155 8.843 12.876 19.884 24.643 33.657 32.267 9.472 5.14 21.21 7.159 31.453 3.143 9.903-3.687 16.922-13.655 17.38-24.164.308-5.56-1.583-10.936-3.329-16.133-3.465-8.95-8.249-17.317-11.872-26.199-8.765-18.987-15.693-39.033-18.22-59.873-1.617-12.796-1.857-26.157 2.311-38.515 4.42-12.002 13.12-21.713 22.137-30.51 12.613-13.419 25.922-26.744 34.192-43.433 9.717-19.883 12.397-42.586 10.447-64.462-1.81-20.763-7.475-41.694-19.504-58.953-11.11-15.488-27.598-26.414-45.223-33.202-13.486-5.087-27.981-7.603-42.393-7.2l-5.86.726z"/><g stroke="#ae8211" stroke-width="2.345"><path fill="#f0f0db" stroke-width="2.6248523" d="M243.413 692.046c9.7-.08 19.494.453 28.931 2.837 9.338 2.374 18.397 6.583 25.44 13.262 4.554 4.22 8.006 9.715 9.376 15.803.629 3.116 1.523 6.177 2.083 9.306.792 4.367.007 8.81-1.094 13.05-.755 2.908-.824 6.015-2.233 8.73-2.735 6.085-8.535 10.42-14.83 12.312-5.229 1.48-10.971 1.311-15.992-.843-1.536-.58-3.548-1.154-4.887.15-1.754 1.423-3.043 3.358-4.976 4.58-6.857 5.22-16.498 6.721-24.507 3.394-3.391-1.21-6.313-3.386-9.428-5.113-2.07-.696-3.883.95-5.42 2.1-5.396 4.282-12.957 5.21-19.465 3.274-8.141-2.26-14.892-8.78-17.58-16.77-1.472-4.423-2.405-9.001-3.579-13.507-1.273-5.592-1.627-11.617.422-17.072 2.59-7.898 8.244-14.459 14.832-19.368 9.016-6.916 19.744-11.328 30.783-13.804 4.019-.879 8.058-1.679 12.122-2.32z"/><path fill="none" stroke-width="2.6248523" d="M270.75 766.037c12.292-16.47-2.626-31.132-3.314-31.808M229.972 768.686c5.9-19.688-13.141-28.344-14.019-28.743"/></g><path fill="#f7d180" stroke="#f9bc25" stroke-width="4.748143" d="M482.51 243.628c-13.04 2.66-23.875 10.957-34.17 18.924-15.664 12.098-30.575 25.648-48.628 34.166-9.546 3.942-20.188 2.156-29.842-.406-26.905-6.809-53.65-15.038-81.39-17.693-27.427-2.529-54.97-.255-82.352 1.742-16.687 1.234-33.431 3.688-49.205 9.47-14.31 5.169-28.002 11.987-41.019 19.84-11.7 7.57-21.721 17.576-29.753 28.936-9.702 13.246-17.838 27.712-23.683 43.07-5.802 16.698-8.036 34.541-7.122 52.17.831 22.025 4.666 43.863 10.225 65.16 4.816 15.213 14.62 28.985 28.092 37.687 16.598 11.388 36.21 16.943 55.33 22.474 31.896 9.079 64.364 16.838 97.49 19.577 24.513 2.21 49.268 1.712 73.686-1.364 26.967-3.392 53.512-10.274 78.612-20.73 31.76-13.083 61.164-31.436 88.084-52.68a441.819 441.819 0 0 0 61.094-59.18c5.872-7.008 10.95-14.67 14.926-22.909 4.174-7.904 9.334-15.622 11.914-24.132 4.312-13.485 4.18-27.81 3.814-41.808-.376-12.902-.989-25.858-3.181-38.598-3.961-17.08-14.474-31.89-27-43.844-13.291-12.564-29.27-22.602-46.894-27.757-5.816-1.474-11.854-2.984-17.883-2.295l-1.142.182z"/><path fill="#f7d180" stroke="#f9bc25" stroke-width="6.89303" d="M445.49 385.39c-12.39 3.998-22.596 13.208-29.279 24.232-4.442 7.845-7.97 16.177-11.528 24.451-12.33 29.105-20.95 59.835-24.843 91.225-3.628 28.984-3.497 58.417.178 87.39 3.854 30.498 11.714 60.626 24.638 88.57 8.515 17.842 18.828 35.071 32.482 49.482 4.63 4.537 9.168 9.613 15.267 12.158 6.466 2.427 13.664-.58 18.573-4.92 6.157-5.45 9.523-13.53 9.86-21.674.495-8.983-1.589-17.836-3.094-26.636-2.054-10.265-4.25-20.502-6.024-30.82-5.08-26.182-9.728-52.711-9.056-79.482.694-22.282 3.75-44.583 10.217-65.948 4.323-12.311 14.038-21.641 19.57-33.324 1.991-3.65 2.322-8.09 4.976-11.372 3.311-2.604 6.63-5.39 8.564-9.219 6.796-10.28 10.528-22.584 10.188-34.932-.337-15.4-6.75-30.814-18.35-41.12-10.866-9.828-25.134-15.175-39.462-17.352-4.27-.526-8.577-.859-12.88-.708z"/><path fill="#f7d180" stroke="#f9bc25" stroke-width="7.389888000000001" d="M158.923 367.983c-16.454 2.328-33.129 6.439-47.097 15.811-14.61 9.73-25.317 24.423-32.383 40.324-5.279 10.956-10.648 22.139-12.641 34.238-1.231 6.904-.548 13.955.984 20.75 1.487 7.745 1.9 15.584 4.669 22.99 2.229 6.042 2.826 12.496 2.966 18.892.628 8.803 1.803 17.563 2.897 26.318 3.082 23.223 7.851 46.314 15.87 68.37 7.51 21.29 17.688 41.488 27.73 61.662 9.92 19.416 19.616 39.048 31.833 57.154 8.842 12.877 19.883 24.643 33.656 32.268 9.472 5.14 21.21 7.158 31.453 3.142 9.904-3.687 16.922-13.654 17.38-24.164.308-5.56-1.583-10.936-3.329-16.133-3.465-8.95-8.249-17.317-11.871-26.198-8.766-18.988-15.694-39.034-18.222-59.874-1.616-12.795-1.856-26.156 2.312-38.515 4.42-12.001 13.12-21.713 22.137-30.51 12.613-13.418 25.922-26.744 34.192-43.432 9.717-19.884 12.398-42.587 10.447-64.463-1.81-20.763-7.475-41.694-19.504-58.952-11.11-15.488-27.598-26.414-45.222-33.202-13.487-5.087-27.982-7.603-42.394-7.2l-5.86.725z"/><path fill="#f7d180" stroke="#f9bc25" stroke-width="6.89303" d="M19.598 3.457c-3.576.329-6.771 2.582-9.294 5.03-5.208 5.168-7.52 12.797-6.738 20.023.745 10.965 6.743 20.623 13.096 29.25 16.301 23.79 33.702 46.89 48.106 71.925 10.263 17.817 18.667 36.762 24.13 56.61 2.976 11.367 5.8 22.856 6.875 34.584.933 9.892-1.175 19.69-3.231 29.303-1.719 11.149-1.595 22.521-3.944 33.583-1.354 8.016-1.329 16.335.902 24.196 4.317 16.659 16.005 31.64 31.897 38.618 15.482 6.687 33.24 6.404 49.254 1.798 8.573-2.37 16.62-7.83 20.616-15.964 7.06-12.119 8.46-26.559 8.033-40.325-.14-26.801-2.949-53.626-8.98-79.757-5.738-25.079-14.727-49.358-25.98-72.473-13.402-27.276-30.292-52.875-50.375-75.695-12.942-14.585-27.392-27.896-43.501-38.925-12.5-8.556-25.952-16.069-40.547-20.368-3.34-.942-6.84-1.553-10.318-1.414z"/><path fill="#f9bc25" d="M243.976 283.474c1.429-11.896 32.456-10.634 34.474 1.403 2.02 12.036-10.838 119.104-14.285 118.961-3.448-.14-21.618-108.47-20.19-120.366zM296.047 290.27c2.753-11.661 33.443-6.927 34.099 5.26.656 12.188-24.127 117.145-27.537 116.617-3.41-.526-9.316-110.216-6.563-121.878zM345.33 296.688c3.311-11.516 33.738-5.313 33.808 6.892.07 12.205-29.727 115.847-33.107 115.155-3.38-.69-4.011-110.533-.7-122.05zM34.484 79.726l52.184-39.845 14.49 18.976-52.184 39.846zM61.113 119.156l59.248-45.24 16.45 21.545-59.247 45.24zM84.267 158.781l68.23-33.263 12.096 24.81-68.23 33.264zM93.385 248.982l94.434-38.014-10.558-26.396-82.725 25.319-1.15 39.09zM90.628 303.514l107.714-16.08-5.616-36.254-99.734 15.452-2.363 36.88zM462.533 608.077c5.98-2.652 1.79-27.362-4.655-27.456-6.445-.094-60.262 23.77-59.795 26.515.466 2.745 58.471 3.592 64.451.941zM402.19 674.54c-6.362 1.517-18.01-20.674-12.942-24.656 5.07-3.982 62.335-17.63 63.629-15.163 1.294 2.466-44.324 38.304-50.687 39.82z"/><g stroke="#ae8211" stroke-width="2.345"><path fill="#f0f0db" stroke-width="2.6248523" d="M477.428 683.84c9.7-.08 19.494.454 28.931 2.837 9.338 2.375 18.397 6.584 25.44 13.263 4.554 4.22 8.006 9.715 9.375 15.803.63 3.116 1.524 6.177 2.084 9.305.792 4.368.007 8.81-1.094 13.05-.756 2.909-.824 6.016-2.233 8.731-2.735 6.085-8.535 10.42-14.83 12.312-5.229 1.48-10.971 1.311-15.992-.843-1.536-.58-3.548-1.154-4.887.15-1.754 1.423-3.043 3.357-4.976 4.58-6.857 5.22-16.499 6.721-24.507 3.394-3.391-1.21-6.313-3.386-9.428-5.113-2.07-.696-3.883.95-5.42 2.099-5.396 4.283-12.958 5.21-19.465 3.275-8.142-2.26-14.892-8.78-17.58-16.77-1.472-4.424-2.405-9.002-3.579-13.507-1.273-5.592-1.627-11.617.422-17.073 2.59-7.897 8.244-14.458 14.832-19.367 9.016-6.916 19.744-11.329 30.783-13.805 4.019-.878 8.058-1.678 12.122-2.32z"/><path fill="none" stroke-width="2.6248523" d="M504.764 757.831c12.293-16.47-2.625-31.131-3.313-31.807M463.987 760.481c5.9-19.688-13.141-28.344-14.019-28.743"/></g><g stroke="#ae8211" stroke-width="2.345"><path fill="#f0f0db" stroke-width="2.6248523" d="M215.16 701.161c9.7-.08 19.494.453 28.932 2.837 9.337 2.374 18.396 6.583 25.44 13.262 4.554 4.22 8.005 9.715 9.375 15.803.629 3.116 1.523 6.177 2.084 9.306.791 4.367.007 8.81-1.095 13.05-.755 2.908-.823 6.015-2.233 8.73-2.734 6.085-8.534 10.42-14.829 12.312-5.23 1.48-10.972 1.311-15.993-.843-1.536-.58-3.547-1.154-4.886.15-1.755 1.423-3.043 3.357-4.976 4.58-6.857 5.22-16.5 6.721-24.508 3.394-3.39-1.21-6.313-3.386-9.427-5.113-2.07-.696-3.884.95-5.42 2.099-5.396 4.283-12.958 5.21-19.466 3.275-8.141-2.26-14.892-8.78-17.58-16.77-1.471-4.424-2.405-9.002-3.579-13.507-1.273-5.592-1.626-11.617.422-17.073 2.59-7.897 8.244-14.458 14.832-19.367 9.017-6.916 19.744-11.329 30.783-13.805 4.019-.878 8.059-1.678 12.123-2.32z"/><path fill="none" stroke-width="2.6248523" d="M242.497 775.151c12.293-16.47-2.626-31.131-3.313-31.807M201.72 777.801c5.9-19.688-13.142-28.344-14.02-28.743"/></g><path fill="#f9bc25" d="M457.667 543.195c-1.219-1.224-3.822-2.417-5.902-3.587-9.275-4.69-20.158-9.01-30.809-13.335-8.957-3.537-18.415-6.874-27.83-10.218-3.702-1.12-7.208-.63-8.818.14-6.55 2.391-8.492 6.363-7.998 10.565.263 3.497 3.277 7.354 4.16 10.938l1.562 4.477c3.413 1.598 8.191 1.843 11.907 2.025 21.127.986 42.1 1.52 60.357.103 1.423-.208 3.442-.355 3.372-1.108zM478.717 517.022c8.33 1.324 21.127-28.352 14.219-32.974-6.909-4.623-81.88-16.546-83.3-13.248-1.423 3.297 60.752 44.898 69.082 46.223zM262.043 511.772c9.03-1.422 12.291-36.3 3.622-38.753-8.669-2.453-89.95 10.346-90.311 14.222-.362 3.875 77.658 25.953 86.69 24.531zM84.029 430.529c-7.002-5.88 8.204-37.437 16.895-35.064 8.692 2.372 71.709 55.28 70.018 58.786-1.69 3.506-79.912-17.844-86.915-23.722zM110.727 641.283c-8.992 1.651-23.626-30.175-16.26-35.362 7.366-5.187 88.296-20.048 89.92-16.51 1.627 3.535-64.668 50.222-73.66 51.873zM83.06 544.942c-9.031-1.422-12.292-36.3-3.623-38.752 8.67-2.453 89.951 10.346 90.312 14.221.362 3.876-77.659 25.954-86.69 24.532zM218.197 584.759c6.436 1.17 16.869-21.617 11.592-25.32-5.276-3.702-63.195-14.238-64.354-11.705-1.159 2.532 46.327 35.855 52.763 37.026zM204.256 663.074c5.9-2.825.99-27.402-5.455-27.307-6.446.094-59.541 25.52-58.994 28.251.545 2.73 58.55 1.881 64.45-.944z"/><path fill="#f7d180" stroke="#f9bc25" stroke-width="5.105041000000001" d="M442.954 89.287c-.893.058-1.64.242-2.241.602-12.566 7.525-15.687 118.332-4.155 131.704-9.253 15.447-14.488 32.878-14.488 51.281 0 52.448 42.259 96.695 100.158 110.875 9.072 12.518 34 19.526 59.483 15.91 20.443-2.902 35.662-11.828 40.403-22.307 47.237-18.581 79.932-58.367 79.932-104.478 0-18.144-5.096-35.344-14.106-50.627 12.306-9.846 9.301-124.696-3.499-132.36-12.028-7.204-85.626 48.529-94.308 69.65a169.152 169.152 0 0 0-28.1-2.35c-9.28 0-18.288.763-27.064 2.187-8.525-20.176-75.081-71.19-92.013-70.089z"/><path fill="#f26c61" fill-opacity=".976" fill-rule="evenodd" stroke="#e5655b" stroke-opacity=".977" stroke-width="3.21526" d="M584.608 359.77c-9.241 11.934-26.692 13.897-38.977 4.384a28.929 28.929 0 0 1-4.72-4.607l21.453-17.002z"/><g fill="none" stroke="#ac2424"><g stroke-width="2.354"><path d="M-805.9 501.57c-3.152 9.719-13.586 15.042-23.305 11.89-9.719-3.152-15.042-13.586-11.89-23.305a18.5 18.5 0 0 1 3.381-6.131" transform="matrix(1.98513 -.64023 1.03937 1.22282 1723.288 -800.001)"/><path d="M-805.9 501.57c-3.152 9.719-13.586 15.042-23.305 11.89-9.719-3.152-15.042-13.586-11.89-23.305a18.5 18.5 0 0 1 3.381-6.131" transform="matrix(-1.98513 -.64023 -1.03937 1.22282 -599.249 -800.001)"/></g><path stroke-width="5.26718664" d="M562.192 335.56v-23.395"/></g><path fill="#f26c61" fill-opacity=".976" fill-rule="evenodd" stroke="#e5655b" stroke-opacity=".977" stroke-width=".8345115" d="M587.655 296.06c-6.14-2.143-12.952-2.86-19.657-3.148-8.048-.456-16.22-.315-24.13.965-1.905.348-3.857.634-5.669 1.202-2.037.829-3.144 2.69-2.623 4.383.446 2.574 1.791 4.992 2.898 7.432 1.169 2.187 3.1 4.138 5.552 5.61 3.062 2.183 4.978 5.15 5.795 8.233.537 1.8 1.403 3.573 2.975 5.018 1.724 1.757 3.942 3.208 6.263 4.507 1.414.692 3.32.959 4.847.306 2.441-.867 4.115-2.529 5.977-3.933 2.508-2.132 3.43-4.95 4.963-7.481 1.051-1.835 2.613-3.503 4.583-4.856 2.365-1.772 4.86-3.607 5.985-6.03 1.779-2.96 3.324-6.059 3.76-9.31.044-1.068-.306-2.234-1.519-2.897z"/><path fill="url(#a)" fill-rule="evenodd" stroke="#000900" stroke-opacity=".977" d="M-722.5 501.11c0 6.49-5.596 11.75-12.5 11.75s-12.5-5.26-12.5-11.75 5.596-11.75 12.5-11.75 12.5 5.26 12.5 11.75z" transform="matrix(-1.14948 -.1854 .29598 -1.83512 -375.247 1049.327)"/><path fill="url(#b)" stroke="#7de55b" stroke-opacity=".977" d="M-722.5 501.11c0 6.49-5.596 11.75-12.5 11.75s-12.5-5.26-12.5-11.75 5.596-11.75 12.5-11.75 12.5 5.26 12.5 11.75z" transform="matrix(-2.25594 -.36386 .38708 -2.39991 -1234.478 1201.015)"/><path fill="url(#b)" stroke="#7de55b" stroke-opacity=".977" d="M-722.5 501.11c0 6.49-5.596 11.75-12.5 11.75s-12.5-5.26-12.5-11.75 5.596-11.75 12.5-11.75 12.5 5.26 12.5 11.75z" transform="matrix(2.25594 .36386 .38708 -2.39991 2081.788 1735.888)"/><path fill="url(#a)" fill-rule="evenodd" stroke="#000900" stroke-opacity=".977" d="M-722.5 501.11c0 6.49-5.596 11.75-12.5 11.75s-12.5-5.26-12.5-11.75 5.596-11.75 12.5-11.75 12.5 5.26 12.5 11.75z" transform="matrix(1.14948 .1854 .29598 -1.83512 1314.477 1321.86)"/><path fill="#f3f9ff" fill-opacity=".976" fill-rule="evenodd" d="M618.725 255.444a5.04 5.04 0 1 1 10.08 0 5.04 5.04 0 0 1-10.08 0z"/><path fill="url(#a)" fill-rule="evenodd" stroke="#000900" stroke-opacity=".977" d="M-722.5 501.11c0 6.49-5.596 11.75-12.5 11.75s-12.5-5.26-12.5-11.75 5.596-11.75 12.5-11.75 12.5 5.26 12.5 11.75z" transform="matrix(1.14948 -.1854 -.29598 -1.83512 1506.155 1045.216)"/><path fill="url(#b)" stroke="#7de55b" stroke-opacity=".977" d="M-722.5 501.11c0 6.49-5.596 11.75-12.5 11.75s-12.5-5.26-12.5-11.75 5.596-11.75 12.5-11.75 12.5 5.26 12.5 11.75z" transform="matrix(2.25594 -.36386 -.38708 -2.39991 2365.387 1196.904)"/><path fill="url(#b)" stroke="#7de55b" stroke-opacity=".977" d="M-722.5 501.11c0 6.49-5.596 11.75-12.5 11.75s-12.5-5.26-12.5-11.75 5.596-11.75 12.5-11.75 12.5 5.26 12.5 11.75z" transform="matrix(-2.25594 .36386 -.38708 -2.39991 -950.88 1731.777)"/><path fill="url(#a)" fill-rule="evenodd" stroke="#000900" stroke-opacity=".977" d="M-722.5 501.11c0 6.49-5.596 11.75-12.5 11.75s-12.5-5.26-12.5-11.75 5.596-11.75 12.5-11.75 12.5 5.26 12.5 11.75z" transform="matrix(-1.14948 .1854 -.29598 -1.83512 -183.569 1317.748)"/><path fill="#f3f9ff" fill-opacity=".976" fill-rule="evenodd" d="M509.031 250.458a5.04 5.04 0 1 1 10.08 0 5.04 5.04 0 0 1-10.08 0z"/><path fill="#f7a280" d="M-508 340.36c-4.85 4.157-59.074-14.937-60.249-21.215-1.175-6.278 42.473-43.691 48.497-41.569 6.025 2.122 16.601 58.628 11.751 62.785z" filter="url(#c)" transform="matrix(1.17049 .11568 -.1019 1.32875 1309.639 -200.098)"/><path fill="#f7a280" d="M-508 340.36c-4.85 4.157-59.074-14.937-60.249-21.215-1.175-6.278 42.473-43.691 48.497-41.569 6.025 2.122 16.601 58.628 11.751 62.785z" filter="url(#c)" transform="matrix(-1.17049 .11568 .1019 1.32875 -184.602 -200.098)"/><path fill="none" stroke="#000" stroke-width="1.7495" d="M485.117 313.766c-39.67-6.48-100.332-6.76-132.07 30.79"/><path fill="none" stroke="#000" stroke-width="1.3908525" d="M479.764 305.893c-34.59-6.359-73.058-9.52-105.462-2.546-18.5 3.981-35.807 7.652-48.155 12.993"/><path fill="none" stroke="#000" stroke-width="1.7495" d="M375.493 367.405c27.357-32.575 63.65-48.582 108.76-48.244"/><g fill="#f9bc25"><path d="M589.331 163.928c-1.017-6.461-25.971-8.794-27.726-2.592-1.755 6.203 7.402 64.356 10.175 64.614 2.773.259 18.57-55.561 17.552-62.023z"/><path d="M533.057 162.721c1.017-6.461 25.971-8.794 27.726-2.592 1.755 6.202-7.402 64.356-10.175 64.614-2.773.259-18.569-55.561-17.552-62.023z"/></g><path fill="#f9bc25" d="M698.429 264.215c3.91-2.811-3.827-23.435-8.596-22.915-4.77.52-39.953 25.827-39.093 28.119.86 2.291 43.78-2.392 47.69-5.203zM697.385 292.929c4.7-1.047 5.702-23.052 1.113-24.45-4.589-1.398-46.891 8.026-47.002 10.47-.111 2.446 41.19 15.027 45.89 13.98zM425.341 262.92c-3.909-2.811 3.827-23.435 8.596-22.915 4.77.52 39.953 25.828 39.093 28.119-.86 2.292-43.78-2.391-47.69-5.203zM426.367 291.634c-4.7-1.047-5.701-23.052-1.112-24.45 4.589-1.398 46.891 8.026 47.002 10.471.11 2.445-41.19 15.026-45.89 13.98z"/><g fill="none" stroke="#000"><path stroke-width="1.7495" d="M640.315 315.237c39.67-6.479 100.332-6.759 132.07 30.791"/><path stroke-width="1.3908525" d="M645.686 307.364c34.59-6.359 73.058-9.519 105.462-2.546 18.499 3.981 35.807 7.652 48.155 12.993"/><path stroke-width="1.7495" d="M749.939 368.86c-27.357-32.577-63.65-48.583-108.76-48.245"/></g></svg>